<svg width="80" height="171" viewBox="0 0 80 171" fill="none" xmlns="http://www.w3.org/2000/svg">
<path d="M36.8211 6.76573C36.4156 7.14065 36.3908 7.77333 36.7657 8.17886L42.8754 14.7873C43.2503 15.1928 43.883 15.2176 44.2886 14.8427C44.6941 14.4678 44.7189 13.8351 44.344 13.4296L38.9131 7.55542L44.7873 2.12457C45.1928 1.74965 45.2176 1.11697 44.8427 0.711447C44.4678 0.30592 43.8351 0.281109 43.4296 0.65603L36.8211 6.76573ZM64.5 29.5L65.4975 29.4288L64.5 29.5ZM1.01969 169.123C0.535278 169.388 0.357633 169.996 0.622904 170.48C0.888174 170.965 1.49591 171.142 1.98031 170.877L1.01969 169.123ZM37.5 7.5L37.4608 8.49923C41.5827 8.66088 47.8581 9.92886 53.2189 13.18C58.5457 16.4105 62.9307 21.5652 63.5025 29.5712L64.5 29.5L65.4975 29.4288C64.8693 20.6348 60.0043 14.9561 54.2561 11.47C48.5419 8.00447 41.9173 6.67246 37.5392 6.50077L37.5 7.5ZM64.5 29.5L63.5025 29.5712C63.8631 34.6192 62.6276 38.2014 60.7182 40.5952C58.8028 42.9966 56.1417 44.2883 53.4957 44.6334C50.8326 44.9808 48.266 44.3607 46.5435 43.0483C44.8689 41.7724 43.9357 39.8118 44.479 37.204L43.5 37L42.521 36.796C41.8143 40.1882 43.0686 42.9151 45.3315 44.6392C47.5465 46.3268 50.6674 47.0192 53.7543 46.6166C56.8583 46.2117 60.0097 44.6909 62.2818 41.8423C64.5599 38.9861 65.8869 34.8808 65.4975 29.4288L64.5 29.5ZM43.5 37L44.479 37.204C44.9979 34.7129 47.0851 32.9505 50.2517 32.208C53.4167 31.4658 57.5031 31.8033 61.5661 33.4285C69.6403 36.6582 77.5 44.9262 77.5 59.5H78.5H79.5C79.5 44.0738 71.1097 35.0918 62.3089 31.5715C57.9344 29.8217 53.427 29.4092 49.7951 30.2608C46.1649 31.112 43.2521 33.2871 42.521 36.796L43.5 37ZM78.5 59.5H77.5C77.5 113.422 42.8911 146.193 1.01969 169.123L1.5 170L1.98031 170.877C44.1089 147.807 79.5 114.505 79.5 59.5H78.5Z" fill="black"/>
</svg>
